<svg xmlns="http://www.w3.org/2000/svg" viewBox="0 0 512 512"><path d="M385,255,190,61.33l50.85-50.51a20.09,20.09,0,0,1,28.28,0L435.83,176.39a19.77,19.77,0,0,1,0,28.09Z" style="fill:#f39200"/><path d="M74.17,176.39,240.86,10.82a20.09,20.09,0,0,1,28.28,0L320,61.33,125,255,74.17,204.48A19.77,19.77,0,0,1,74.17,176.39Z" style="fill:#f9b233"/><path d="M385,255,190,448.67l50.85,50.51a20.09,20.09,0,0,0,28.28,0L435.83,333.61a19.77,19.77,0,0,0,0-28.09Z" style="fill:#36a9e1"/><path d="M74.17,333.61,240.86,499.18a20.09,20.09,0,0,0,28.28,0L320,448.67,125,255,74.17,305.52A19.77,19.77,0,0,0,74.17,333.61Z" style="fill:#2fac66"/></svg>